<mxfile host="app.diagrams.net" modified="2023-08-18T16:14:55.514Z" agent="Mozilla/5.0 (Windows NT 10.0; Win64; x64) AppleWebKit/537.36 (KHTML, like Gecko) Chrome/116.0.0.0 Safari/537.36" etag="7lXLC7wja45mjwSSisov" version="21.6.8" type="device">
  <diagram id="C5RBs43oDa-KdzZeNtuy" name="Page-1">
    <mxGraphModel dx="1500" dy="809" grid="0" gridSize="10" guides="1" tooltips="1" connect="1" arrows="1" fold="1" page="1" pageScale="1" pageWidth="827" pageHeight="1169" math="0" shadow="0">
      <root>
        <mxCell id="WIyWlLk6GJQsqaUBKTNV-0" />
        <mxCell id="WIyWlLk6GJQsqaUBKTNV-1" parent="WIyWlLk6GJQsqaUBKTNV-0" />
        <mxCell id="L9zX1_u5yTb0BtgkmOzb-2" style="edgeStyle=orthogonalEdgeStyle;rounded=0;orthogonalLoop=1;jettySize=auto;html=1;exitX=0.5;exitY=1;exitDx=0;exitDy=0;entryX=0.5;entryY=0;entryDx=0;entryDy=0;" edge="1" parent="WIyWlLk6GJQsqaUBKTNV-1" source="L9zX1_u5yTb0BtgkmOzb-0" target="L9zX1_u5yTb0BtgkmOzb-1">
          <mxGeometry relative="1" as="geometry" />
        </mxCell>
        <mxCell id="L9zX1_u5yTb0BtgkmOzb-5" style="edgeStyle=orthogonalEdgeStyle;rounded=0;orthogonalLoop=1;jettySize=auto;html=1;exitX=0.5;exitY=1;exitDx=0;exitDy=0;entryX=0.5;entryY=0;entryDx=0;entryDy=0;" edge="1" parent="WIyWlLk6GJQsqaUBKTNV-1" source="L9zX1_u5yTb0BtgkmOzb-0" target="L9zX1_u5yTb0BtgkmOzb-3">
          <mxGeometry relative="1" as="geometry" />
        </mxCell>
        <mxCell id="L9zX1_u5yTb0BtgkmOzb-0" value="Mulai" style="rounded=1;whiteSpace=wrap;html=1;arcSize=50;" vertex="1" parent="WIyWlLk6GJQsqaUBKTNV-1">
          <mxGeometry x="252" y="58" width="120" height="60" as="geometry" />
        </mxCell>
        <mxCell id="L9zX1_u5yTb0BtgkmOzb-7" style="edgeStyle=orthogonalEdgeStyle;rounded=0;orthogonalLoop=1;jettySize=auto;html=1;exitX=0.5;exitY=1;exitDx=0;exitDy=0;entryX=0.5;entryY=0;entryDx=0;entryDy=0;" edge="1" parent="WIyWlLk6GJQsqaUBKTNV-1" source="L9zX1_u5yTb0BtgkmOzb-1" target="L9zX1_u5yTb0BtgkmOzb-6">
          <mxGeometry relative="1" as="geometry" />
        </mxCell>
        <mxCell id="L9zX1_u5yTb0BtgkmOzb-1" value="DHT22 baca parameter" style="rounded=0;whiteSpace=wrap;html=1;" vertex="1" parent="WIyWlLk6GJQsqaUBKTNV-1">
          <mxGeometry x="164" y="162" width="120" height="60" as="geometry" />
        </mxCell>
        <mxCell id="L9zX1_u5yTb0BtgkmOzb-8" style="edgeStyle=orthogonalEdgeStyle;rounded=0;orthogonalLoop=1;jettySize=auto;html=1;exitX=0.5;exitY=1;exitDx=0;exitDy=0;entryX=0.5;entryY=0;entryDx=0;entryDy=0;" edge="1" parent="WIyWlLk6GJQsqaUBKTNV-1" source="L9zX1_u5yTb0BtgkmOzb-3" target="L9zX1_u5yTb0BtgkmOzb-6">
          <mxGeometry relative="1" as="geometry" />
        </mxCell>
        <mxCell id="L9zX1_u5yTb0BtgkmOzb-3" value="LDR baca parameter" style="rounded=0;whiteSpace=wrap;html=1;" vertex="1" parent="WIyWlLk6GJQsqaUBKTNV-1">
          <mxGeometry x="339" y="162" width="120" height="60" as="geometry" />
        </mxCell>
        <mxCell id="L9zX1_u5yTb0BtgkmOzb-10" style="edgeStyle=orthogonalEdgeStyle;rounded=0;orthogonalLoop=1;jettySize=auto;html=1;exitX=0.5;exitY=1;exitDx=0;exitDy=0;entryX=0.5;entryY=0;entryDx=0;entryDy=0;" edge="1" parent="WIyWlLk6GJQsqaUBKTNV-1" source="L9zX1_u5yTb0BtgkmOzb-6" target="L9zX1_u5yTb0BtgkmOzb-9">
          <mxGeometry relative="1" as="geometry" />
        </mxCell>
        <mxCell id="L9zX1_u5yTb0BtgkmOzb-6" value="Menampilkan nilai Suhu, Kelembaban, dan nilai bacaan analog dari LDR pada &lt;i&gt;serial monitor&lt;/i&gt;" style="shape=parallelogram;perimeter=parallelogramPerimeter;whiteSpace=wrap;html=1;fixedSize=1;" vertex="1" parent="WIyWlLk6GJQsqaUBKTNV-1">
          <mxGeometry x="173" y="263" width="291" height="57" as="geometry" />
        </mxCell>
        <mxCell id="L9zX1_u5yTb0BtgkmOzb-12" style="edgeStyle=orthogonalEdgeStyle;rounded=0;orthogonalLoop=1;jettySize=auto;html=1;exitX=0.5;exitY=1;exitDx=0;exitDy=0;entryX=0.5;entryY=0;entryDx=0;entryDy=0;" edge="1" parent="WIyWlLk6GJQsqaUBKTNV-1" source="L9zX1_u5yTb0BtgkmOzb-9" target="L9zX1_u5yTb0BtgkmOzb-11">
          <mxGeometry relative="1" as="geometry" />
        </mxCell>
        <mxCell id="L9zX1_u5yTb0BtgkmOzb-9" value="ESP32 (1)&amp;nbsp;&lt;i&gt;p&lt;/i&gt;&lt;i&gt;ublish&lt;/i&gt; nilai parameter ke Broker dalam bentuk &lt;i&gt;topics&lt;/i&gt;" style="rounded=0;whiteSpace=wrap;html=1;" vertex="1" parent="WIyWlLk6GJQsqaUBKTNV-1">
          <mxGeometry x="239.75" y="347" width="157.5" height="60" as="geometry" />
        </mxCell>
        <mxCell id="L9zX1_u5yTb0BtgkmOzb-22" style="edgeStyle=orthogonalEdgeStyle;rounded=0;orthogonalLoop=1;jettySize=auto;html=1;exitX=0.5;exitY=1;exitDx=0;exitDy=0;entryX=0.5;entryY=0;entryDx=0;entryDy=0;" edge="1" parent="WIyWlLk6GJQsqaUBKTNV-1" source="L9zX1_u5yTb0BtgkmOzb-11" target="L9zX1_u5yTb0BtgkmOzb-19">
          <mxGeometry relative="1" as="geometry" />
        </mxCell>
        <mxCell id="L9zX1_u5yTb0BtgkmOzb-11" value="Broker &lt;i&gt;subscribe topic&lt;/i&gt;" style="rounded=0;whiteSpace=wrap;html=1;" vertex="1" parent="WIyWlLk6GJQsqaUBKTNV-1">
          <mxGeometry x="258.5" y="434" width="120" height="60" as="geometry" />
        </mxCell>
        <mxCell id="L9zX1_u5yTb0BtgkmOzb-17" style="edgeStyle=orthogonalEdgeStyle;rounded=0;orthogonalLoop=1;jettySize=auto;html=1;exitX=0.5;exitY=1;exitDx=0;exitDy=0;entryX=0.5;entryY=0;entryDx=0;entryDy=0;" edge="1" parent="WIyWlLk6GJQsqaUBKTNV-1" source="L9zX1_u5yTb0BtgkmOzb-15" target="L9zX1_u5yTb0BtgkmOzb-16">
          <mxGeometry relative="1" as="geometry" />
        </mxCell>
        <mxCell id="L9zX1_u5yTb0BtgkmOzb-15" value="A" style="ellipse;whiteSpace=wrap;html=1;aspect=fixed;" vertex="1" parent="WIyWlLk6GJQsqaUBKTNV-1">
          <mxGeometry x="978" y="58" width="34" height="34" as="geometry" />
        </mxCell>
        <mxCell id="L9zX1_u5yTb0BtgkmOzb-27" style="edgeStyle=orthogonalEdgeStyle;rounded=0;orthogonalLoop=1;jettySize=auto;html=1;exitX=0.5;exitY=1;exitDx=0;exitDy=0;entryX=0.5;entryY=0;entryDx=0;entryDy=0;" edge="1" parent="WIyWlLk6GJQsqaUBKTNV-1" source="L9zX1_u5yTb0BtgkmOzb-16" target="L9zX1_u5yTb0BtgkmOzb-25">
          <mxGeometry relative="1" as="geometry" />
        </mxCell>
        <mxCell id="L9zX1_u5yTb0BtgkmOzb-28" style="edgeStyle=orthogonalEdgeStyle;rounded=0;orthogonalLoop=1;jettySize=auto;html=1;exitX=0.5;exitY=1;exitDx=0;exitDy=0;entryX=0.5;entryY=0;entryDx=0;entryDy=0;" edge="1" parent="WIyWlLk6GJQsqaUBKTNV-1" source="L9zX1_u5yTb0BtgkmOzb-16" target="L9zX1_u5yTb0BtgkmOzb-24">
          <mxGeometry relative="1" as="geometry" />
        </mxCell>
        <mxCell id="L9zX1_u5yTb0BtgkmOzb-29" style="edgeStyle=orthogonalEdgeStyle;rounded=0;orthogonalLoop=1;jettySize=auto;html=1;exitX=0.5;exitY=1;exitDx=0;exitDy=0;entryX=0.5;entryY=0;entryDx=0;entryDy=0;" edge="1" parent="WIyWlLk6GJQsqaUBKTNV-1" source="L9zX1_u5yTb0BtgkmOzb-16" target="L9zX1_u5yTb0BtgkmOzb-26">
          <mxGeometry relative="1" as="geometry" />
        </mxCell>
        <mxCell id="L9zX1_u5yTb0BtgkmOzb-16" value="ESP32 (2) &lt;i&gt;subscribe &lt;/i&gt;nilai parameter pada Broker dalam bentuk topics" style="rounded=0;whiteSpace=wrap;html=1;" vertex="1" parent="WIyWlLk6GJQsqaUBKTNV-1">
          <mxGeometry x="906.5" y="118" width="177" height="60" as="geometry" />
        </mxCell>
        <mxCell id="L9zX1_u5yTb0BtgkmOzb-23" style="edgeStyle=orthogonalEdgeStyle;rounded=0;orthogonalLoop=1;jettySize=auto;html=1;exitX=0.5;exitY=1;exitDx=0;exitDy=0;entryX=0.5;entryY=0;entryDx=0;entryDy=0;" edge="1" parent="WIyWlLk6GJQsqaUBKTNV-1" source="L9zX1_u5yTb0BtgkmOzb-19" target="L9zX1_u5yTb0BtgkmOzb-21">
          <mxGeometry relative="1" as="geometry" />
        </mxCell>
        <mxCell id="L9zX1_u5yTb0BtgkmOzb-19" value="Data ditampilkan &lt;br&gt;pada broker" style="shape=parallelogram;perimeter=parallelogramPerimeter;whiteSpace=wrap;html=1;fixedSize=1;" vertex="1" parent="WIyWlLk6GJQsqaUBKTNV-1">
          <mxGeometry x="250.75" y="521" width="135.5" height="60" as="geometry" />
        </mxCell>
        <mxCell id="L9zX1_u5yTb0BtgkmOzb-21" value="A" style="ellipse;whiteSpace=wrap;html=1;aspect=fixed;" vertex="1" parent="WIyWlLk6GJQsqaUBKTNV-1">
          <mxGeometry x="301.5" y="608" width="34" height="34" as="geometry" />
        </mxCell>
        <mxCell id="L9zX1_u5yTb0BtgkmOzb-31" style="edgeStyle=orthogonalEdgeStyle;rounded=0;orthogonalLoop=1;jettySize=auto;html=1;exitX=0.5;exitY=1;exitDx=0;exitDy=0;entryX=0.5;entryY=0;entryDx=0;entryDy=0;" edge="1" parent="WIyWlLk6GJQsqaUBKTNV-1" source="L9zX1_u5yTb0BtgkmOzb-24" target="L9zX1_u5yTb0BtgkmOzb-30">
          <mxGeometry relative="1" as="geometry" />
        </mxCell>
        <mxCell id="L9zX1_u5yTb0BtgkmOzb-24" value="Membaca nilai Suhu" style="rounded=0;whiteSpace=wrap;html=1;" vertex="1" parent="WIyWlLk6GJQsqaUBKTNV-1">
          <mxGeometry x="653" y="222" width="120" height="60" as="geometry" />
        </mxCell>
        <mxCell id="L9zX1_u5yTb0BtgkmOzb-81" style="edgeStyle=orthogonalEdgeStyle;rounded=0;orthogonalLoop=1;jettySize=auto;html=1;exitX=0.5;exitY=1;exitDx=0;exitDy=0;entryX=0.5;entryY=0;entryDx=0;entryDy=0;" edge="1" parent="WIyWlLk6GJQsqaUBKTNV-1" source="L9zX1_u5yTb0BtgkmOzb-25" target="L9zX1_u5yTb0BtgkmOzb-72">
          <mxGeometry relative="1" as="geometry" />
        </mxCell>
        <mxCell id="L9zX1_u5yTb0BtgkmOzb-25" value="Membaca nilai Kelembaban" style="rounded=0;whiteSpace=wrap;html=1;" vertex="1" parent="WIyWlLk6GJQsqaUBKTNV-1">
          <mxGeometry x="935" y="222" width="120" height="60" as="geometry" />
        </mxCell>
        <mxCell id="L9zX1_u5yTb0BtgkmOzb-106" style="edgeStyle=orthogonalEdgeStyle;rounded=0;orthogonalLoop=1;jettySize=auto;html=1;exitX=0.5;exitY=1;exitDx=0;exitDy=0;entryX=0.5;entryY=0;entryDx=0;entryDy=0;" edge="1" parent="WIyWlLk6GJQsqaUBKTNV-1" source="L9zX1_u5yTb0BtgkmOzb-26" target="L9zX1_u5yTb0BtgkmOzb-97">
          <mxGeometry relative="1" as="geometry" />
        </mxCell>
        <mxCell id="L9zX1_u5yTb0BtgkmOzb-26" value="Membaca nilai analog" style="rounded=0;whiteSpace=wrap;html=1;" vertex="1" parent="WIyWlLk6GJQsqaUBKTNV-1">
          <mxGeometry x="1217" y="222" width="125.5" height="60" as="geometry" />
        </mxCell>
        <mxCell id="L9zX1_u5yTb0BtgkmOzb-34" value="Ya" style="edgeStyle=orthogonalEdgeStyle;rounded=0;orthogonalLoop=1;jettySize=auto;html=1;exitX=0;exitY=0.5;exitDx=0;exitDy=0;entryX=1;entryY=0.5;entryDx=0;entryDy=0;" edge="1" parent="WIyWlLk6GJQsqaUBKTNV-1" source="L9zX1_u5yTb0BtgkmOzb-30" target="L9zX1_u5yTb0BtgkmOzb-33">
          <mxGeometry x="-0.5034" y="-10" relative="1" as="geometry">
            <mxPoint as="offset" />
          </mxGeometry>
        </mxCell>
        <mxCell id="L9zX1_u5yTb0BtgkmOzb-36" value="Tidak" style="edgeStyle=orthogonalEdgeStyle;rounded=0;orthogonalLoop=1;jettySize=auto;html=1;exitX=0.5;exitY=1;exitDx=0;exitDy=0;entryX=0.5;entryY=0;entryDx=0;entryDy=0;" edge="1" parent="WIyWlLk6GJQsqaUBKTNV-1" source="L9zX1_u5yTb0BtgkmOzb-30">
          <mxGeometry x="-0.4815" y="15" relative="1" as="geometry">
            <mxPoint x="713" y="416" as="targetPoint" />
            <mxPoint as="offset" />
          </mxGeometry>
        </mxCell>
        <mxCell id="L9zX1_u5yTb0BtgkmOzb-30" value="Suhu &amp;lt;18C?" style="rhombus;whiteSpace=wrap;html=1;" vertex="1" parent="WIyWlLk6GJQsqaUBKTNV-1">
          <mxGeometry x="665.25" y="309" width="95.5" height="80" as="geometry" />
        </mxCell>
        <mxCell id="L9zX1_u5yTb0BtgkmOzb-33" value="PIN22 HIGH&lt;br&gt;PIN21 LOW&lt;br&gt;PIN4 LOW" style="rounded=0;whiteSpace=wrap;html=1;" vertex="1" parent="WIyWlLk6GJQsqaUBKTNV-1">
          <mxGeometry x="508" y="319" width="120" height="60" as="geometry" />
        </mxCell>
        <mxCell id="L9zX1_u5yTb0BtgkmOzb-37" value="Ya" style="edgeStyle=orthogonalEdgeStyle;rounded=0;orthogonalLoop=1;jettySize=auto;html=1;exitX=0;exitY=0.5;exitDx=0;exitDy=0;entryX=1;entryY=0.5;entryDx=0;entryDy=0;" edge="1" parent="WIyWlLk6GJQsqaUBKTNV-1" source="L9zX1_u5yTb0BtgkmOzb-39" target="L9zX1_u5yTb0BtgkmOzb-40">
          <mxGeometry x="-0.5034" y="-10" relative="1" as="geometry">
            <mxPoint as="offset" />
          </mxGeometry>
        </mxCell>
        <mxCell id="L9zX1_u5yTb0BtgkmOzb-38" value="Tidak" style="edgeStyle=orthogonalEdgeStyle;rounded=0;orthogonalLoop=1;jettySize=auto;html=1;exitX=0.5;exitY=1;exitDx=0;exitDy=0;entryX=0.5;entryY=0;entryDx=0;entryDy=0;" edge="1" parent="WIyWlLk6GJQsqaUBKTNV-1" source="L9zX1_u5yTb0BtgkmOzb-39" target="L9zX1_u5yTb0BtgkmOzb-43">
          <mxGeometry x="-0.4815" y="15" relative="1" as="geometry">
            <mxPoint x="713" y="523" as="targetPoint" />
            <mxPoint as="offset" />
          </mxGeometry>
        </mxCell>
        <mxCell id="L9zX1_u5yTb0BtgkmOzb-39" value="Suhu &amp;gt;30C?" style="rhombus;whiteSpace=wrap;html=1;" vertex="1" parent="WIyWlLk6GJQsqaUBKTNV-1">
          <mxGeometry x="665.25" y="416" width="95.5" height="80" as="geometry" />
        </mxCell>
        <mxCell id="L9zX1_u5yTb0BtgkmOzb-40" value="PIN22 HIGH&lt;br&gt;PIN21 HIGH&lt;br&gt;PIN4 HIGH" style="rounded=0;whiteSpace=wrap;html=1;" vertex="1" parent="WIyWlLk6GJQsqaUBKTNV-1">
          <mxGeometry x="508" y="426" width="120" height="60" as="geometry" />
        </mxCell>
        <mxCell id="L9zX1_u5yTb0BtgkmOzb-41" value="Ya" style="edgeStyle=orthogonalEdgeStyle;rounded=0;orthogonalLoop=1;jettySize=auto;html=1;exitX=0;exitY=0.5;exitDx=0;exitDy=0;entryX=1;entryY=0.5;entryDx=0;entryDy=0;" edge="1" parent="WIyWlLk6GJQsqaUBKTNV-1" source="L9zX1_u5yTb0BtgkmOzb-43" target="L9zX1_u5yTb0BtgkmOzb-44">
          <mxGeometry x="-0.5034" y="-10" relative="1" as="geometry">
            <mxPoint as="offset" />
          </mxGeometry>
        </mxCell>
        <mxCell id="L9zX1_u5yTb0BtgkmOzb-42" value="Tidak" style="edgeStyle=orthogonalEdgeStyle;rounded=0;orthogonalLoop=1;jettySize=auto;html=1;exitX=0.5;exitY=1;exitDx=0;exitDy=0;entryX=0.5;entryY=0;entryDx=0;entryDy=0;" edge="1" parent="WIyWlLk6GJQsqaUBKTNV-1" source="L9zX1_u5yTb0BtgkmOzb-43" target="L9zX1_u5yTb0BtgkmOzb-45">
          <mxGeometry x="-0.9552" y="16" relative="1" as="geometry">
            <mxPoint x="773" y="631" as="targetPoint" />
            <mxPoint as="offset" />
          </mxGeometry>
        </mxCell>
        <mxCell id="L9zX1_u5yTb0BtgkmOzb-43" value="18C&amp;lt;Suhu&amp;lt;30C?" style="rhombus;whiteSpace=wrap;html=1;" vertex="1" parent="WIyWlLk6GJQsqaUBKTNV-1">
          <mxGeometry x="658.63" y="524" width="108.75" height="80" as="geometry" />
        </mxCell>
        <mxCell id="L9zX1_u5yTb0BtgkmOzb-44" value="PIN22 HIGH&lt;br&gt;PIN21 LOW&lt;br&gt;PIN4 HIGH" style="rounded=0;whiteSpace=wrap;html=1;" vertex="1" parent="WIyWlLk6GJQsqaUBKTNV-1">
          <mxGeometry x="508" y="534" width="120" height="60" as="geometry" />
        </mxCell>
        <mxCell id="L9zX1_u5yTb0BtgkmOzb-109" style="edgeStyle=orthogonalEdgeStyle;rounded=0;orthogonalLoop=1;jettySize=auto;html=1;exitX=0.5;exitY=1;exitDx=0;exitDy=0;entryX=0.5;entryY=0;entryDx=0;entryDy=0;" edge="1" parent="WIyWlLk6GJQsqaUBKTNV-1" source="L9zX1_u5yTb0BtgkmOzb-45" target="L9zX1_u5yTb0BtgkmOzb-108">
          <mxGeometry relative="1" as="geometry" />
        </mxCell>
        <mxCell id="L9zX1_u5yTb0BtgkmOzb-45" value="Menampilkan nilai Suhu, Kelembaban, dan nilai bacaan analog dari LDR pada &lt;i&gt;serial monitor&lt;/i&gt;" style="shape=parallelogram;perimeter=parallelogramPerimeter;whiteSpace=wrap;html=1;fixedSize=1;" vertex="1" parent="WIyWlLk6GJQsqaUBKTNV-1">
          <mxGeometry x="847.5" y="650" width="291" height="57" as="geometry" />
        </mxCell>
        <mxCell id="L9zX1_u5yTb0BtgkmOzb-70" value="Ya" style="edgeStyle=orthogonalEdgeStyle;rounded=0;orthogonalLoop=1;jettySize=auto;html=1;exitX=0;exitY=0.5;exitDx=0;exitDy=0;entryX=1;entryY=0.5;entryDx=0;entryDy=0;" edge="1" parent="WIyWlLk6GJQsqaUBKTNV-1" source="L9zX1_u5yTb0BtgkmOzb-72" target="L9zX1_u5yTb0BtgkmOzb-73">
          <mxGeometry x="-0.5034" y="-10" relative="1" as="geometry">
            <mxPoint as="offset" />
          </mxGeometry>
        </mxCell>
        <mxCell id="L9zX1_u5yTb0BtgkmOzb-71" value="Tidak" style="edgeStyle=orthogonalEdgeStyle;rounded=0;orthogonalLoop=1;jettySize=auto;html=1;exitX=0.5;exitY=1;exitDx=0;exitDy=0;entryX=0.5;entryY=0;entryDx=0;entryDy=0;" edge="1" parent="WIyWlLk6GJQsqaUBKTNV-1" source="L9zX1_u5yTb0BtgkmOzb-72">
          <mxGeometry x="-0.4815" y="15" relative="1" as="geometry">
            <mxPoint x="993" y="415.5" as="targetPoint" />
            <mxPoint as="offset" />
          </mxGeometry>
        </mxCell>
        <mxCell id="L9zX1_u5yTb0BtgkmOzb-72" value="Kelembaban &amp;lt;65%?" style="rhombus;whiteSpace=wrap;html=1;" vertex="1" parent="WIyWlLk6GJQsqaUBKTNV-1">
          <mxGeometry x="945.25" y="308.5" width="95.5" height="80" as="geometry" />
        </mxCell>
        <mxCell id="L9zX1_u5yTb0BtgkmOzb-73" value="PIN22 HIGH&lt;br&gt;PIN21 HIGH&lt;br&gt;PIN4 HIGH" style="rounded=0;whiteSpace=wrap;html=1;" vertex="1" parent="WIyWlLk6GJQsqaUBKTNV-1">
          <mxGeometry x="788" y="318.5" width="120" height="60" as="geometry" />
        </mxCell>
        <mxCell id="L9zX1_u5yTb0BtgkmOzb-74" value="Ya" style="edgeStyle=orthogonalEdgeStyle;rounded=0;orthogonalLoop=1;jettySize=auto;html=1;exitX=0;exitY=0.5;exitDx=0;exitDy=0;entryX=1;entryY=0.5;entryDx=0;entryDy=0;" edge="1" parent="WIyWlLk6GJQsqaUBKTNV-1" source="L9zX1_u5yTb0BtgkmOzb-76" target="L9zX1_u5yTb0BtgkmOzb-77">
          <mxGeometry x="-0.5034" y="-10" relative="1" as="geometry">
            <mxPoint as="offset" />
          </mxGeometry>
        </mxCell>
        <mxCell id="L9zX1_u5yTb0BtgkmOzb-75" value="Tidak" style="edgeStyle=orthogonalEdgeStyle;rounded=0;orthogonalLoop=1;jettySize=auto;html=1;exitX=0.5;exitY=1;exitDx=0;exitDy=0;entryX=0.5;entryY=0;entryDx=0;entryDy=0;" edge="1" parent="WIyWlLk6GJQsqaUBKTNV-1" source="L9zX1_u5yTb0BtgkmOzb-76" target="L9zX1_u5yTb0BtgkmOzb-79">
          <mxGeometry x="-0.4815" y="15" relative="1" as="geometry">
            <mxPoint x="993" y="522.5" as="targetPoint" />
            <mxPoint as="offset" />
          </mxGeometry>
        </mxCell>
        <mxCell id="L9zX1_u5yTb0BtgkmOzb-76" value="Kelembaban &amp;gt;95%?" style="rhombus;whiteSpace=wrap;html=1;" vertex="1" parent="WIyWlLk6GJQsqaUBKTNV-1">
          <mxGeometry x="945.25" y="415.5" width="95.5" height="80" as="geometry" />
        </mxCell>
        <mxCell id="L9zX1_u5yTb0BtgkmOzb-77" value="PIN22 HIGH&lt;br&gt;PIN21 LOW&lt;br&gt;PIN4 LOW" style="rounded=0;whiteSpace=wrap;html=1;" vertex="1" parent="WIyWlLk6GJQsqaUBKTNV-1">
          <mxGeometry x="788" y="425.5" width="120" height="60" as="geometry" />
        </mxCell>
        <mxCell id="L9zX1_u5yTb0BtgkmOzb-78" value="Ya" style="edgeStyle=orthogonalEdgeStyle;rounded=0;orthogonalLoop=1;jettySize=auto;html=1;exitX=0;exitY=0.5;exitDx=0;exitDy=0;entryX=1;entryY=0.5;entryDx=0;entryDy=0;" edge="1" parent="WIyWlLk6GJQsqaUBKTNV-1" source="L9zX1_u5yTb0BtgkmOzb-79" target="L9zX1_u5yTb0BtgkmOzb-80">
          <mxGeometry x="-0.5034" y="-10" relative="1" as="geometry">
            <mxPoint as="offset" />
          </mxGeometry>
        </mxCell>
        <mxCell id="L9zX1_u5yTb0BtgkmOzb-82" value="Tidak" style="edgeStyle=orthogonalEdgeStyle;rounded=0;orthogonalLoop=1;jettySize=auto;html=1;exitX=0.5;exitY=1;exitDx=0;exitDy=0;entryX=0.5;entryY=0;entryDx=0;entryDy=0;" edge="1" parent="WIyWlLk6GJQsqaUBKTNV-1" source="L9zX1_u5yTb0BtgkmOzb-79" target="L9zX1_u5yTb0BtgkmOzb-45">
          <mxGeometry x="-0.7635" y="15" relative="1" as="geometry">
            <mxPoint as="offset" />
          </mxGeometry>
        </mxCell>
        <mxCell id="L9zX1_u5yTb0BtgkmOzb-79" value="65%&amp;lt;&lt;br&gt;Kelembaban &amp;lt;95%?" style="rhombus;whiteSpace=wrap;html=1;" vertex="1" parent="WIyWlLk6GJQsqaUBKTNV-1">
          <mxGeometry x="938.63" y="523.5" width="108.75" height="80" as="geometry" />
        </mxCell>
        <mxCell id="L9zX1_u5yTb0BtgkmOzb-80" value="PIN22 HIGH&lt;br&gt;PIN21 LOW&lt;br&gt;PIN4 HIGH" style="rounded=0;whiteSpace=wrap;html=1;" vertex="1" parent="WIyWlLk6GJQsqaUBKTNV-1">
          <mxGeometry x="788" y="533.5" width="120" height="60" as="geometry" />
        </mxCell>
        <mxCell id="L9zX1_u5yTb0BtgkmOzb-95" value="Ya" style="edgeStyle=orthogonalEdgeStyle;rounded=0;orthogonalLoop=1;jettySize=auto;html=1;exitX=0;exitY=0.5;exitDx=0;exitDy=0;entryX=1;entryY=0.5;entryDx=0;entryDy=0;" edge="1" parent="WIyWlLk6GJQsqaUBKTNV-1" source="L9zX1_u5yTb0BtgkmOzb-97" target="L9zX1_u5yTb0BtgkmOzb-98">
          <mxGeometry x="-0.5034" y="-10" relative="1" as="geometry">
            <mxPoint as="offset" />
          </mxGeometry>
        </mxCell>
        <mxCell id="L9zX1_u5yTb0BtgkmOzb-96" value="Tidak" style="edgeStyle=orthogonalEdgeStyle;rounded=0;orthogonalLoop=1;jettySize=auto;html=1;exitX=0.5;exitY=1;exitDx=0;exitDy=0;entryX=0.5;entryY=0;entryDx=0;entryDy=0;" edge="1" parent="WIyWlLk6GJQsqaUBKTNV-1" source="L9zX1_u5yTb0BtgkmOzb-97">
          <mxGeometry x="-0.4815" y="15" relative="1" as="geometry">
            <mxPoint x="1279" y="415" as="targetPoint" />
            <mxPoint as="offset" />
          </mxGeometry>
        </mxCell>
        <mxCell id="L9zX1_u5yTb0BtgkmOzb-97" value="Analog&amp;gt;2045?" style="rhombus;whiteSpace=wrap;html=1;" vertex="1" parent="WIyWlLk6GJQsqaUBKTNV-1">
          <mxGeometry x="1231.25" y="308" width="95.5" height="80" as="geometry" />
        </mxCell>
        <mxCell id="L9zX1_u5yTb0BtgkmOzb-98" value="PIN22 HIGH&lt;br&gt;PIN21 HIGH&lt;br&gt;PIN4 HIGH" style="rounded=0;whiteSpace=wrap;html=1;" vertex="1" parent="WIyWlLk6GJQsqaUBKTNV-1">
          <mxGeometry x="1074" y="318" width="120" height="60" as="geometry" />
        </mxCell>
        <mxCell id="L9zX1_u5yTb0BtgkmOzb-99" value="Ya" style="edgeStyle=orthogonalEdgeStyle;rounded=0;orthogonalLoop=1;jettySize=auto;html=1;exitX=0;exitY=0.5;exitDx=0;exitDy=0;entryX=1;entryY=0.5;entryDx=0;entryDy=0;" edge="1" parent="WIyWlLk6GJQsqaUBKTNV-1" source="L9zX1_u5yTb0BtgkmOzb-101" target="L9zX1_u5yTb0BtgkmOzb-102">
          <mxGeometry x="-0.5034" y="-10" relative="1" as="geometry">
            <mxPoint as="offset" />
          </mxGeometry>
        </mxCell>
        <mxCell id="L9zX1_u5yTb0BtgkmOzb-100" value="Tidak" style="edgeStyle=orthogonalEdgeStyle;rounded=0;orthogonalLoop=1;jettySize=auto;html=1;exitX=0.5;exitY=1;exitDx=0;exitDy=0;entryX=0.5;entryY=0;entryDx=0;entryDy=0;" edge="1" parent="WIyWlLk6GJQsqaUBKTNV-1" source="L9zX1_u5yTb0BtgkmOzb-101" target="L9zX1_u5yTb0BtgkmOzb-104">
          <mxGeometry x="-0.4815" y="15" relative="1" as="geometry">
            <mxPoint x="1279" y="522" as="targetPoint" />
            <mxPoint as="offset" />
          </mxGeometry>
        </mxCell>
        <mxCell id="L9zX1_u5yTb0BtgkmOzb-101" value="Analog&amp;lt;1291&lt;span style=&quot;background-color: initial;&quot;&gt;?&lt;/span&gt;" style="rhombus;whiteSpace=wrap;html=1;" vertex="1" parent="WIyWlLk6GJQsqaUBKTNV-1">
          <mxGeometry x="1231.25" y="415" width="95.5" height="80" as="geometry" />
        </mxCell>
        <mxCell id="L9zX1_u5yTb0BtgkmOzb-102" value="PIN22 HIGH&lt;br&gt;PIN21 LOW&lt;br&gt;PIN4 LOW" style="rounded=0;whiteSpace=wrap;html=1;" vertex="1" parent="WIyWlLk6GJQsqaUBKTNV-1">
          <mxGeometry x="1074" y="425" width="120" height="60" as="geometry" />
        </mxCell>
        <mxCell id="L9zX1_u5yTb0BtgkmOzb-103" value="Ya" style="edgeStyle=orthogonalEdgeStyle;rounded=0;orthogonalLoop=1;jettySize=auto;html=1;exitX=0;exitY=0.5;exitDx=0;exitDy=0;entryX=1;entryY=0.5;entryDx=0;entryDy=0;" edge="1" parent="WIyWlLk6GJQsqaUBKTNV-1" source="L9zX1_u5yTb0BtgkmOzb-104" target="L9zX1_u5yTb0BtgkmOzb-105">
          <mxGeometry x="-0.5034" y="-10" relative="1" as="geometry">
            <mxPoint as="offset" />
          </mxGeometry>
        </mxCell>
        <mxCell id="L9zX1_u5yTb0BtgkmOzb-107" value="Tidak" style="edgeStyle=orthogonalEdgeStyle;rounded=0;orthogonalLoop=1;jettySize=auto;html=1;exitX=0.5;exitY=1;exitDx=0;exitDy=0;entryX=0.5;entryY=0;entryDx=0;entryDy=0;" edge="1" parent="WIyWlLk6GJQsqaUBKTNV-1" source="L9zX1_u5yTb0BtgkmOzb-104" target="L9zX1_u5yTb0BtgkmOzb-45">
          <mxGeometry x="-0.9759" y="16" relative="1" as="geometry">
            <mxPoint as="offset" />
          </mxGeometry>
        </mxCell>
        <mxCell id="L9zX1_u5yTb0BtgkmOzb-104" value="1291&amp;lt;Analog&lt;br&gt;&amp;lt;2045?" style="rhombus;whiteSpace=wrap;html=1;" vertex="1" parent="WIyWlLk6GJQsqaUBKTNV-1">
          <mxGeometry x="1224.63" y="523" width="108.75" height="80" as="geometry" />
        </mxCell>
        <mxCell id="L9zX1_u5yTb0BtgkmOzb-105" value="PIN22 HIGH&lt;br&gt;PIN21 LOW&lt;br&gt;PIN4 HIGH" style="rounded=0;whiteSpace=wrap;html=1;" vertex="1" parent="WIyWlLk6GJQsqaUBKTNV-1">
          <mxGeometry x="1074" y="533" width="120" height="60" as="geometry" />
        </mxCell>
        <mxCell id="L9zX1_u5yTb0BtgkmOzb-108" value="Selesai" style="rounded=1;whiteSpace=wrap;html=1;arcSize=50;" vertex="1" parent="WIyWlLk6GJQsqaUBKTNV-1">
          <mxGeometry x="933" y="735" width="120" height="60" as="geometry" />
        </mxCell>
        <mxCell id="L9zX1_u5yTb0BtgkmOzb-110" value="" style="rounded=0;whiteSpace=wrap;html=1;fillColor=none;dashed=1;dashPattern=8 8;" vertex="1" parent="WIyWlLk6GJQsqaUBKTNV-1">
          <mxGeometry x="138" y="49.5" width="348" height="617.5" as="geometry" />
        </mxCell>
        <mxCell id="L9zX1_u5yTb0BtgkmOzb-111" value="" style="rounded=0;whiteSpace=wrap;html=1;fillColor=none;dashed=1;dashPattern=8 8;" vertex="1" parent="WIyWlLk6GJQsqaUBKTNV-1">
          <mxGeometry x="503" y="49.5" width="847" height="757.5" as="geometry" />
        </mxCell>
        <mxCell id="L9zX1_u5yTb0BtgkmOzb-112" value="&lt;font style=&quot;font-size: 18px;&quot;&gt;Publisher&lt;/font&gt;" style="text;html=1;strokeColor=none;fillColor=none;align=center;verticalAlign=middle;whiteSpace=wrap;rounded=0;" vertex="1" parent="WIyWlLk6GJQsqaUBKTNV-1">
          <mxGeometry x="144" y="15" width="60" height="30" as="geometry" />
        </mxCell>
        <mxCell id="L9zX1_u5yTb0BtgkmOzb-113" value="&lt;font style=&quot;font-size: 18px;&quot;&gt;Subscriber&lt;/font&gt;" style="text;html=1;strokeColor=none;fillColor=none;align=center;verticalAlign=middle;whiteSpace=wrap;rounded=0;" vertex="1" parent="WIyWlLk6GJQsqaUBKTNV-1">
          <mxGeometry x="508" y="15" width="60" height="30" as="geometry" />
        </mxCell>
      </root>
    </mxGraphModel>
  </diagram>
</mxfile>
